<?xml version="1.0" encoding="UTF-8" standalone="no"?>
<!DOCTYPE svg PUBLIC "-//W3C//DTD SVG 1.1//EN" "http://www.w3.org/Graphics/SVG/1.1/DTD/svg11.dtd">
<svg width="100%" height="100%" viewBox="0 0 32 32" version="1.1" xmlns="http://www.w3.org/2000/svg" xmlns:xlink="http://www.w3.org/1999/xlink" xml:space="preserve" xmlns:serif="http://www.serif.com/" style="fill-rule:evenodd;clip-rule:evenodd;stroke-linejoin:round;stroke-miterlimit:2;">
    <path d="M17.333,25.333C17.333,26.48 17.587,27.56 18,28.547C17.333,29.04 16.413,29.333 15.333,29.333C9.333,29.333 9.2,24.56 12.347,22.987C13.653,22.333 14.24,20.947 14.507,19.72C13.853,19.453 13.28,19.027 12.853,18.493C7.933,21.133 2.667,20.093 2.667,15.333C2.667,9.333 7.413,9.187 8.973,12.347C9.64,13.667 11.04,14.24 12.28,14.493C12.533,13.853 12.96,13.293 13.507,12.867C10.853,7.947 11.907,2.667 16.667,2.667C22.667,2.667 22.787,7.427 19.64,9C18.32,9.653 17.733,11.053 17.48,12.293C18.12,12.56 18.667,12.973 19.107,13.507C24.04,10.84 29.333,11.893 29.333,16.667C29.333,17.28 29.267,17.827 29.187,18.32C26.854,17.04 24.03,17.005 21.667,18.227C21.04,17.853 20.347,17.613 19.693,17.48C19.427,18.12 19.013,18.667 18.48,19.12C18.707,19.533 18.893,19.96 19.067,20.373C18,21.733 17.333,23.453 17.333,25.333ZM16,17.333C16.72,17.333 17.333,16.733 17.333,16C17.333,15.267 16.72,14.667 16,14.667C15.24,14.667 14.667,15.267 14.667,16C14.667,16.733 15.24,17.333 16,17.333Z" style="fill:rgb(136,136,136);"/>
    <g transform="matrix(1,0,0,-1,1.06581e-14,50.6667)">
        <path d="M25.333,26.667L24,26.667L24,28L28,28L28,30.667L21.333,30.667L21.333,24L25.333,24L25.333,22.667L21.333,22.667L21.333,20L25.333,20C26.796,20 28,21.204 28,22.667L28,24C28,25.48 26.813,26.667 25.333,26.667Z" style="fill:rgb(136,136,136);"/>
    </g>
</svg>
