<?xml version="1.0" encoding="UTF-8" standalone="no"?>
<!DOCTYPE svg PUBLIC "-//W3C//DTD SVG 1.1//EN" "http://www.w3.org/Graphics/SVG/1.1/DTD/svg11.dtd">
<svg width="100%" height="100%" viewBox="0 0 32 32" version="1.1" xmlns="http://www.w3.org/2000/svg" xmlns:xlink="http://www.w3.org/1999/xlink" xml:space="preserve" xmlns:serif="http://www.serif.com/" style="fill-rule:evenodd;clip-rule:evenodd;stroke-linejoin:round;stroke-miterlimit:2;">
    <g transform="matrix(0.417627,0,0,0.417627,0.633947,8.59362)">
        <path d="M26.722,18.112C26.722,22.542 25.542,26.031 23.181,28.578C20.819,31.125 17.788,32.398 14.087,32.398C10.36,32.398 7.312,31.125 4.945,28.578C2.577,26.031 1.393,22.542 1.393,18.112L1.393,16.938C1.393,12.507 2.57,9.015 4.925,6.462C7.279,3.908 10.32,2.631 14.048,2.631C17.749,2.631 20.786,3.908 23.161,6.462C25.535,9.015 26.722,12.507 26.722,16.938L26.722,18.112ZM19.639,16.898C19.639,13.98 19.175,11.784 18.246,10.312C17.317,8.839 15.918,8.103 14.048,8.103C10.572,8.103 8.728,10.69 8.516,15.863L8.496,18.112C8.496,20.95 8.964,23.132 9.899,24.658C10.834,26.183 12.23,26.946 14.087,26.946C15.852,26.946 17.215,26.193 18.176,24.688C19.138,23.182 19.626,21.03 19.639,18.231L19.639,16.898Z" style="fill:rgb(136,136,136);fill-rule:nonzero;"/>
        <path d="M30.344,32L30.344,3.029L49.724,3.029L49.724,8.422L37.328,8.422L37.328,15.087L48.59,15.087L48.59,20.459L37.328,20.459L37.328,32L30.344,32Z" style="fill:rgb(136,136,136);fill-rule:nonzero;"/>
        <path d="M52.629,32L52.629,3.029L72.009,3.029L72.009,8.422L59.613,8.422L59.613,15.087L70.875,15.087L70.875,20.459L59.613,20.459L59.613,32L52.629,32Z" style="fill:rgb(136,136,136);fill-rule:nonzero;"/>
    </g>
</svg>
