<svg xmlns="http://www.w3.org/2000/svg" xml:space="preserve" fill-rule="evenodd" stroke-linejoin="round" stroke-miterlimit="2" clip-rule="evenodd" viewBox="0 0 512 512"><path fill="url(#a)" d="M71.057 104.802h37.668c6.287 0 11.383 5.096 11.383 11.383v234.664h117.251c6.286 0 11.383 5.096 11.383 11.383v34.462c0 6.287-5.097 11.383-11.383 11.383H71.057c-6.287 0-11.383-5.096-11.383-11.383V116.185c0-6.287 5.096-11.383 11.383-11.383Zm326.762 289.283c-4.77 3.679-9.788 6.722-15.043 9.142-11.513 5.302-24.975 8.056-40.427 8.056-25.371 0-45.705-8.412-61.175-24.81-15.075-15.979-23.14-39.172-23.14-69.924V196.331c0-6.287 5.096-11.383 11.383-11.383h36.066c6.286 0 11.382 5.096 11.382 11.383v118.214c0 14.333 2.497 25.111 8.808 31.957 5.808 6.3 13.848 9.156 23.89 9.156 12.369 0 22.377-3.449 29.819-10.892 7.462-7.462 10.892-17.609 10.892-30.221V196.331c0-6.287 5.097-11.383 11.383-11.383h36.066c6.286 0 11.382 5.096 11.382 11.383v200.363c0 6.287-5.096 11.383-11.382 11.383h-28.051c-5.684 0-10.496-4.192-11.276-9.822l-.577-4.17Z"/><defs><linearGradient id="a" x1="0" x2="1" y1="0" y2=".164801" gradientTransform="matrix(194.716 306.481 -389.431 153.24 254.39 104.802)" gradientUnits="userSpaceOnUse"><stop offset="0" stop-color="#7bfac2"/><stop offset="1" stop-color="#35ce8b"/></linearGradient></defs></svg>