<?xml version="1.0" encoding="UTF-8" standalone="no"?>
<!DOCTYPE svg PUBLIC "-//W3C//DTD SVG 1.1//EN" "http://www.w3.org/Graphics/SVG/1.1/DTD/svg11.dtd">
<svg width="100%" height="100%" viewBox="0 0 32 32" version="1.1" xmlns="http://www.w3.org/2000/svg" xmlns:xlink="http://www.w3.org/1999/xlink" xml:space="preserve" xmlns:serif="http://www.serif.com/" style="fill-rule:evenodd;clip-rule:evenodd;stroke-linejoin:round;stroke-miterlimit:2;">
    <g transform="matrix(0.417627,0,0,0.417627,0.633947,8.59362)">
        <path d="M34.701,18.112C34.701,22.542 33.521,26.031 31.159,28.578C28.798,31.125 25.767,32.398 22.066,32.398C18.339,32.398 15.291,31.125 12.923,28.578C10.556,26.031 9.372,22.542 9.372,18.112L9.372,16.938C9.372,12.507 10.549,9.015 12.903,6.462C15.258,3.908 18.299,2.631 22.026,2.631C25.727,2.631 28.765,3.908 31.14,6.462C33.514,9.015 34.701,12.507 34.701,16.938L34.701,18.112ZM27.618,16.898C27.618,13.98 27.153,11.784 26.225,10.312C25.296,8.839 23.897,8.103 22.026,8.103C18.551,8.103 16.707,10.69 16.495,15.863L16.475,18.112C16.475,20.95 16.943,23.132 17.878,24.658C18.813,26.183 20.209,26.946 22.066,26.946C23.831,26.946 25.193,26.193 26.155,24.688C27.117,23.182 27.604,21.03 27.618,18.231L27.618,16.898Z" style="fill:rgb(136,136,136);fill-rule:nonzero;"/>
        <path d="M62.518,3.029L62.518,32L55.554,32L45.306,13.973L45.306,32L38.322,32L38.322,3.029L45.306,3.029L55.554,21.056L55.554,3.029L62.518,3.029Z" style="fill:rgb(136,136,136);fill-rule:nonzero;"/>
    </g>
</svg>
