<?xml version="1.0" encoding="UTF-8" standalone="no"?>
<!DOCTYPE svg PUBLIC "-//W3C//DTD SVG 1.1//EN" "http://www.w3.org/Graphics/SVG/1.1/DTD/svg11.dtd">
<svg width="100%" height="100%" viewBox="0 0 32 32" version="1.1" xmlns="http://www.w3.org/2000/svg" xmlns:xlink="http://www.w3.org/1999/xlink" xml:space="preserve" xmlns:serif="http://www.serif.com/" style="fill-rule:evenodd;clip-rule:evenodd;stroke-linejoin:round;stroke-miterlimit:2;">
    <g transform="matrix(1,3.67394e-16,3.67394e-16,-1,-1.77636e-14,32)">
        <path d="M28,25.333L12.413,25.333L5.427,7.147L7.907,6.187L11.947,16.667C12.69,16.376 13.482,16.227 14.28,16.227C17.819,16.234 20.737,19.127 20.773,22.667L28,22.667L28,25.333M14.253,22.667L18.107,22.667C18.093,20.592 16.382,18.893 14.308,18.893C14.299,18.893 14.289,18.893 14.28,18.893C13.787,18.893 13.333,18.987 12.893,19.147L14.253,22.667Z" style="fill:rgb(136,136,136);fill-rule:nonzero;"/>
    </g>
    <path d="M30.667,23.067L30.667,27.733C30.667,28.533 29.867,29.333 28.933,29.333L21.6,29.333C20.8,29.333 20,28.533 20,27.6L20,22.933C20,22.133 20.8,21.333 21.6,21.333L21.6,19.333C21.6,17.467 23.467,16 25.333,16C27.2,16 29.067,17.467 29.067,19.333L29.067,21.333C29.867,21.333 30.667,22.133 30.667,23.067M27.333,19.333C27.333,18.267 26.4,17.6 25.333,17.6C24.267,17.6 23.333,18.267 23.333,19.333L23.333,21.333L27.333,21.333L27.333,19.333Z" style="fill:rgb(136,136,136);fill-rule:nonzero;"/>
</svg>
