<svg viewBox="0 0 32 32"><path fill="currentColor" d="M21.33 20v6.67h4v4H28V19.99h-2.67v4H24v-4zm-4 5.33c0 1.15.26 2.23.67 3.22a4.5 4.5 0 0 1-2.67.78c-6 0-6.13-4.77-2.98-6.34 1.3-.66 1.89-2.04 2.16-3.27a4 4 0 0 1-1.66-1.23c-4.92 2.64-10.18 1.6-10.18-3.16 0-6 4.74-6.14 6.3-2.98.67 1.32 2.07 1.89 3.31 2.14q.39-.97 1.23-1.62c-2.66-4.92-1.6-10.2 3.16-10.2 6 0 6.12 4.76 2.97 6.33-1.32.65-1.9 2.05-2.16 3.3q.96.4 1.63 1.2c4.93-2.66 10.22-1.6 10.22 3.17q-.01.91-.14 1.65a8 8 0 0 0-7.52-.1 6 6 0 0 0-1.98-.74 4 4 0 0 1-1.21 1.64q.33.63.59 1.25a8 8 0 0 0-1.74 4.96m-1.33-8c.72 0 1.33-.6 1.33-1.33s-.61-1.33-1.33-1.33c-.76 0-1.33.6-1.33 1.33s.57 1.33 1.33 1.33"/></svg>